<svg xmlns="http://www.w3.org/2000/svg" xmlns:xlink="http://www.w3.org/1999/xlink" width="2000" zoomAndPan="magnify" viewBox="0 0 1500 1499.999933" height="2000" preserveAspectRatio="xMidYMid meet" version="1.0"><defs><g/><clipPath id="32edefb002"><path d="M 384.089844 255.359375 L 1109.519531 255.359375 L 1109.519531 1048.230469 L 384.089844 1048.230469 Z M 384.089844 255.359375 " clip-rule="nonzero"/></clipPath><clipPath id="48576dc768"><path d="M 649.867188 274.425781 L 693.535156 274.425781 L 693.535156 994.699219 L 649.867188 994.699219 Z M 649.867188 274.425781 " clip-rule="nonzero"/></clipPath><clipPath id="5fdc11c0f3"><path d="M 512.882812 281.253906 L 658.363281 281.253906 L 658.363281 995 L 512.882812 995 Z M 512.882812 281.253906 " clip-rule="nonzero"/></clipPath><clipPath id="359e58918c"><path d="M 532.382812 281.253906 L 638.863281 281.253906 C 649.632812 281.253906 658.363281 289.984375 658.363281 300.753906 L 658.363281 975.199219 C 658.363281 985.96875 649.632812 994.699219 638.863281 994.699219 L 532.382812 994.699219 C 521.613281 994.699219 512.882812 985.96875 512.882812 975.199219 L 512.882812 300.753906 C 512.882812 289.984375 521.613281 281.253906 532.382812 281.253906 Z M 532.382812 281.253906 " clip-rule="nonzero"/></clipPath><clipPath id="c185a36be3"><path d="M 432.980469 109.492188 L 1060.648438 109.492188 L 1060.648438 266.71875 L 432.980469 266.71875 Z M 432.980469 109.492188 " clip-rule="nonzero"/></clipPath><clipPath id="3b7d46a432"><path d="M 746.804688 109.492188 L 1060.628906 266.71875 L 432.980469 266.71875 Z M 746.804688 109.492188 " clip-rule="nonzero"/></clipPath><clipPath id="d15e9a63c3"><path d="M 432.957031 1043.175781 L 1060.625 1043.175781 L 1060.625 1200.402344 L 432.957031 1200.402344 Z M 432.957031 1043.175781 " clip-rule="nonzero"/></clipPath><clipPath id="c9251e090e"><path d="M 746.800781 1200.402344 L 432.976562 1043.175781 L 1060.625 1043.175781 Z M 746.800781 1200.402344 " clip-rule="nonzero"/></clipPath><clipPath id="40bc412523"><path d="M 741 1006 L 1147 1006 L 1147 1227 L 741 1227 Z M 741 1006 " clip-rule="nonzero"/></clipPath><clipPath id="527a595a54"><path d="M 1133.867188 1006.011719 L 1146.136719 1030.625 L 754 1226.136719 L 741.730469 1201.527344 Z M 1133.867188 1006.011719 " clip-rule="nonzero"/></clipPath><clipPath id="519ae8ce94"><path d="M 1133.867188 1006.011719 L 1146.136719 1030.625 L 754.070312 1226.101562 L 741.800781 1201.492188 Z M 1133.867188 1006.011719 " clip-rule="nonzero"/></clipPath><clipPath id="848ece435b"><path d="M 363 1010 L 756 1010 L 756 1227 L 363 1227 Z M 363 1010 " clip-rule="nonzero"/></clipPath><clipPath id="de3e042c75"><path d="M 363.488281 1037.476562 L 377.089844 1010.191406 L 755.4375 1198.828125 L 741.835938 1226.113281 Z M 363.488281 1037.476562 " clip-rule="nonzero"/></clipPath><clipPath id="2afb35b153"><path d="M 363.488281 1037.476562 L 377.089844 1010.191406 L 755.40625 1198.8125 L 741.804688 1226.097656 Z M 363.488281 1037.476562 " clip-rule="nonzero"/></clipPath><clipPath id="af8d551669"><path d="M 349 53 L 750 53 L 750 297 L 349 297 Z M 349 53 " clip-rule="nonzero"/></clipPath><clipPath id="28149e1ebf"><path d="M 720.945312 53.246094 L 749.996094 111.511719 L 378.320312 296.824219 L 349.269531 238.554688 Z M 720.945312 53.246094 " clip-rule="nonzero"/></clipPath><clipPath id="1b88d2d2d2"><path d="M 720.945312 53.246094 L 749.996094 111.511719 L 378.460938 296.753906 L 349.410156 238.484375 Z M 720.945312 53.246094 " clip-rule="nonzero"/></clipPath><clipPath id="abd076e7d7"><path d="M 730 66 L 1158 66 L 1158 309 L 730 309 Z M 730 66 " clip-rule="nonzero"/></clipPath><clipPath id="ef27932001"><path d="M 730.308594 105.722656 L 750 66.226562 L 1157.433594 269.367188 L 1137.742188 308.859375 Z M 730.308594 105.722656 " clip-rule="nonzero"/></clipPath><clipPath id="cc8f66d13b"><path d="M 730.308594 105.722656 L 750 66.226562 L 1157.316406 269.308594 L 1137.628906 308.804688 Z M 730.308594 105.722656 " clip-rule="nonzero"/></clipPath></defs><rect x="-150" width="1800" fill="#ffffff" y="-149.999993" height="1799.99992" fill-opacity="1"/><rect x="-150" width="1800" fill="#ffffff" y="-149.999993" height="1799.99992" fill-opacity="1"/><g clip-path="url(#32edefb002)"><path fill="#172026" d="M 384.089844 255.359375 L 1109.519531 255.359375 L 1109.519531 1048.796875 L 384.089844 1048.796875 Z M 384.089844 255.359375 " fill-opacity="1" fill-rule="nonzero"/></g><g fill="#ffffff" fill-opacity="1"><g transform="translate(474.854464, 930.775159)"><g><path d="M 373.378906 0 L 543.464844 0 L 419.546875 -214.632812 C 477.859375 -248.648438 511.066406 -306.964844 511.066406 -375 C 511.066406 -482.71875 426.023438 -566.953125 289.144531 -566.953125 L 56.695312 -566.953125 L 56.695312 0 L 211.394531 0 L 211.394531 -182.234375 L 268.089844 -182.234375 Z M 211.394531 -435.746094 L 283.476562 -435.746094 C 349.890625 -435.746094 370.949219 -410.636719 370.949219 -375 C 370.949219 -338.550781 349.890625 -313.445312 283.476562 -313.445312 L 211.394531 -313.445312 Z M 211.394531 -435.746094 "/></g></g></g><g clip-path="url(#48576dc768)"><path fill="#172026" d="M 649.867188 274.425781 L 693.535156 274.425781 L 693.535156 994.769531 L 649.867188 994.769531 Z M 649.867188 274.425781 " fill-opacity="1" fill-rule="nonzero"/></g><g clip-path="url(#5fdc11c0f3)"><g clip-path="url(#359e58918c)"><path fill="#0e636b" d="M 512.882812 281.253906 L 658.363281 281.253906 L 658.363281 994.453125 L 512.882812 994.453125 Z M 512.882812 281.253906 " fill-opacity="1" fill-rule="nonzero"/></g></g><g clip-path="url(#c185a36be3)"><g clip-path="url(#3b7d46a432)"><path fill="#172026" d="M 432.980469 109.492188 L 1060.648438 109.492188 L 1060.648438 266.71875 L 432.980469 266.71875 Z M 432.980469 109.492188 " fill-opacity="1" fill-rule="nonzero"/></g></g><g clip-path="url(#d15e9a63c3)"><g clip-path="url(#c9251e090e)"><path fill="#172026" d="M 1060.625 1200.402344 L 432.957031 1200.402344 L 432.957031 1043.175781 L 1060.625 1043.175781 Z M 1060.625 1200.402344 " fill-opacity="1" fill-rule="nonzero"/></g></g><g clip-path="url(#40bc412523)"><g clip-path="url(#527a595a54)"><g clip-path="url(#519ae8ce94)"><path fill="#ffffff" d="M 1133.867188 1006.011719 L 1146.136719 1030.625 L 754.09375 1226.089844 L 741.824219 1201.480469 Z M 1133.867188 1006.011719 " fill-opacity="1" fill-rule="nonzero"/></g></g></g><g clip-path="url(#848ece435b)"><g clip-path="url(#de3e042c75)"><g clip-path="url(#2afb35b153)"><path fill="#ffffff" d="M 363.488281 1037.476562 L 377.089844 1010.191406 L 755.4375 1198.828125 L 741.835938 1226.113281 Z M 363.488281 1037.476562 " fill-opacity="1" fill-rule="nonzero"/></g></g></g><g clip-path="url(#af8d551669)"><g clip-path="url(#28149e1ebf)"><g clip-path="url(#1b88d2d2d2)"><path fill="#ffffff" d="M 720.945312 53.246094 L 749.996094 111.511719 L 378.546875 296.710938 L 349.496094 238.441406 Z M 720.945312 53.246094 " fill-opacity="1" fill-rule="nonzero"/></g></g></g><g clip-path="url(#abd076e7d7)"><g clip-path="url(#ef27932001)"><g clip-path="url(#cc8f66d13b)"><path fill="#ffffff" d="M 730.308594 105.722656 L 750 66.226562 L 1157.277344 269.289062 L 1137.589844 308.785156 Z M 730.308594 105.722656 " fill-opacity="1" fill-rule="nonzero"/></g></g></g><g fill="#000000" fill-opacity="1"><g transform="translate(391.440389, 1377.123071)"><g><path d="M 42.234375 0 L 27.890625 -50.875 L 24.546875 -50.875 L 24.546875 0 L 10.796875 0 L 10.796875 -122.171875 L 38.890625 -122.171875 C 49.492188 -122.171875 54.796875 -116.929688 54.796875 -106.453125 L 54.796875 -66.578125 C 54.796875 -57.410156 50.671875 -52.238281 42.421875 -51.0625 L 57.15625 0 Z M 24.546875 -110.375 L 24.546875 -62.84375 L 34.765625 -62.84375 C 37.253906 -62.84375 38.890625 -63.203125 39.671875 -63.921875 C 40.460938 -64.648438 40.859375 -66.257812 40.859375 -68.75 L 40.859375 -104.296875 C 40.859375 -106.910156 40.492188 -108.578125 39.765625 -109.296875 C 39.046875 -110.015625 37.378906 -110.375 34.765625 -110.375 Z M 24.546875 -110.375 "/></g></g></g><g fill="#000000" fill-opacity="1"><g transform="translate(480.80322, 1377.123071)"><g><path d="M 26.515625 0 L 12.5625 0 L 12.5625 -122.171875 L 26.515625 -122.171875 Z M 26.515625 0 "/></g></g></g><g fill="#000000" fill-opacity="1"><g transform="translate(548.758237, 1377.123071)"><g><path d="M 23.96875 -17.484375 L 33 -122.171875 L 47.140625 -122.171875 L 34.953125 0 L 13.15625 0 L 0.984375 -122.171875 L 15.125 -122.171875 Z M 23.96875 -17.484375 "/></g></g></g><g fill="#000000" fill-opacity="1"><g transform="translate(625.747737, 1377.123071)"><g><path d="M 57.546875 0 L 43.40625 0 L 39.28125 -30.828125 L 20.421875 -30.828125 L 16.890625 0 L 2.953125 0 L 20.234375 -122.171875 L 38.296875 -122.171875 Z M 29.265625 -106.65625 L 21.796875 -42.625 L 37.703125 -42.625 Z M 29.265625 -106.65625 "/></g></g></g><g fill="#000000" fill-opacity="1"><g transform="translate(714.914179, 1377.123071)"><g><path d="M 23.96875 0 C 13.488281 0 8.25 -5.238281 8.25 -15.71875 L 8.25 -34.5625 L 22.1875 -34.5625 L 22.1875 -17.875 C 22.1875 -15.382812 22.578125 -13.78125 23.359375 -13.0625 C 24.148438 -12.34375 25.789062 -11.984375 28.28125 -11.984375 L 29.265625 -11.984375 C 31.753906 -11.984375 33.390625 -12.34375 34.171875 -13.0625 C 34.960938 -13.78125 35.359375 -15.382812 35.359375 -17.875 L 35.359375 -50.875 C 35.359375 -53.488281 34.992188 -55.15625 34.265625 -55.875 C 33.546875 -56.59375 31.878906 -56.953125 29.265625 -56.953125 L 23.5625 -56.953125 C 13.09375 -56.953125 7.859375 -62.191406 7.859375 -72.671875 L 7.859375 -106.453125 C 7.859375 -116.929688 13.09375 -122.171875 23.5625 -122.171875 L 33.390625 -122.171875 C 43.867188 -122.171875 49.109375 -116.929688 49.109375 -106.453125 L 49.109375 -87.796875 L 35.15625 -87.796875 L 35.15625 -104.296875 C 35.15625 -106.910156 34.796875 -108.578125 34.078125 -109.296875 C 33.359375 -110.015625 31.6875 -110.375 29.0625 -110.375 L 27.890625 -110.375 C 25.398438 -110.375 23.757812 -110.015625 22.96875 -109.296875 C 22.1875 -108.578125 21.796875 -106.910156 21.796875 -104.296875 L 21.796875 -74.828125 C 21.796875 -72.335938 22.1875 -70.734375 22.96875 -70.015625 C 23.757812 -69.296875 25.398438 -68.9375 27.890625 -68.9375 L 33.578125 -68.9375 C 44.054688 -68.9375 49.296875 -63.695312 49.296875 -53.21875 L 49.296875 -15.71875 C 49.296875 -5.238281 44.054688 0 33.578125 0 Z M 23.96875 0 "/></g></g></g><g fill="#000000" fill-opacity="1"><g transform="translate(800.938184, 1377.123071)"><g><path d="M 42.625 -122.171875 L 42.625 -110.375 L 28.671875 -110.375 L 28.671875 0 L 14.921875 0 L 14.921875 -110.375 L 0.984375 -110.375 L 0.984375 -122.171875 Z M 42.625 -122.171875 "/></g></g></g><g fill="#000000" fill-opacity="1"><g transform="translate(873.410455, 1377.123071)"><g><path d="M 24.75 -57.546875 L 24.75 -11.984375 L 48.90625 -11.984375 L 48.90625 0 L 10.796875 0 L 10.796875 -122.171875 L 47.53125 -122.171875 L 47.53125 -110.375 L 24.75 -110.375 L 24.75 -69.53125 L 43.609375 -69.53125 L 43.609375 -57.546875 Z M 24.75 -57.546875 "/></g></g></g><g fill="#000000" fill-opacity="1"><g transform="translate(954.917216, 1377.123071)"><g><path d="M 52.828125 -85.828125 L 38.890625 -85.828125 L 38.890625 -104.296875 C 38.890625 -106.910156 38.53125 -108.578125 37.8125 -109.296875 C 37.09375 -110.015625 35.421875 -110.375 32.796875 -110.375 L 29.859375 -110.375 C 27.367188 -110.375 25.726562 -110.015625 24.9375 -109.296875 C 24.15625 -108.578125 23.765625 -106.910156 23.765625 -104.296875 L 23.765625 -17.671875 C 23.765625 -15.179688 24.15625 -13.546875 24.9375 -12.765625 C 25.726562 -11.984375 27.367188 -11.59375 29.859375 -11.59375 L 32.796875 -11.59375 C 35.421875 -11.59375 37.09375 -11.984375 37.8125 -12.765625 C 38.53125 -13.546875 38.890625 -15.179688 38.890625 -17.671875 L 38.890625 -36.140625 L 52.828125 -36.140625 L 52.828125 -15.515625 C 52.828125 -5.035156 47.59375 0.203125 37.125 0.203125 L 25.53125 0.203125 C 15.0625 0.203125 9.828125 -5.035156 9.828125 -15.515625 L 9.828125 -106.453125 C 9.828125 -116.929688 15.0625 -122.171875 25.53125 -122.171875 L 37.125 -122.171875 C 47.59375 -122.171875 52.828125 -116.929688 52.828125 -106.453125 Z M 52.828125 -85.828125 "/></g></g></g><g fill="#000000" fill-opacity="1"><g transform="translate(1044.476417, 1377.123071)"><g><path d="M 39.28125 -66.96875 L 39.28125 -122.171875 L 53.421875 -122.171875 L 53.421875 0 L 39.28125 0 L 39.28125 -55 L 24.75 -55 L 24.75 0 L 10.796875 0 L 10.796875 -122.171875 L 24.75 -122.171875 L 24.75 -66.96875 Z M 39.28125 -66.96875 "/></g></g></g></svg>